<svg xmlns="http://www.w3.org/2000/svg" xmlns:xlink="http://www.w3.org/1999/xlink" width="1024" zoomAndPan="magnify" viewBox="0 0 768 767.999994" height="1024" preserveAspectRatio="xMidYMid meet" version="1.0"><defs><clipPath id="id1"><path d="M 70.648438 479.660156 L 697.589844 479.660156 L 697.589844 700.023438 L 70.648438 700.023438 Z M 70.648438 479.660156 " clip-rule="nonzero"/></clipPath></defs><g clip-path="url(#id1)"><path fill="rgb(0%, 0%, 0%)" d="M 697.523438 577.808594 C 696.242188 547.0625 670.082031 525.449219 645.359375 511.089844 C 623.496094 498.371094 599.519531 489.214844 574.882812 482.246094 C 575.308594 484.042969 575.734375 485.847656 576.160156 487.648438 C 582.46875 512.722656 590.65625 537.046875 575.210938 560.75 C 563.351562 578.957031 545.234375 591.871094 525.445312 600.394531 C 477.566406 621.035156 423.09375 628.664062 371.207031 626.800781 C 323.527344 625.089844 267.488281 617.886719 225.960938 592.136719 C 206.800781 580.25 189.546875 563.191406 184.464844 540.484375 C 181.433594 526.949219 186.359375 514.273438 192.109375 502.265625 C 195.65625 494.851562 199.082031 487.386719 202.484375 479.90625 C 190.855469 483.042969 179.351562 486.574219 168.019531 490.609375 C 135.308594 502.242188 98.894531 518.980469 79.367188 549.183594 C 63.242188 574.109375 71 602.5 90.230469 622.949219 C 117.011719 651.445312 158.585938 665.9375 195.15625 676.421875 C 249.984375 692.148438 307.738281 698.351562 364.613281 699.785156 C 443.226562 701.769531 525.371094 694.25 599.863281 667.75 C 638.015625 654.171875 695.441406 628.261719 697.496094 580.734375 C 697.554688 580.234375 697.589844 579.71875 697.582031 579.175781 C 697.589844 578.703125 697.570312 578.25 697.523438 577.808594 " fill-opacity="1" fill-rule="nonzero"/></g><path fill="rgb(0%, 0%, 0%)" d="M 350.328125 463.898438 C 356.558594 457.8125 365.90625 455.304688 376.371094 455.304688 C 388.328125 455.304688 400.550781 454.558594 412.472656 455.515625 C 420.191406 456.140625 425.570312 459.230469 429.328125 463.839844 C 451.722656 462.257812 474.019531 459.214844 495.777344 453.792969 C 513.113281 449.464844 532.273438 444.242188 547.457031 433.949219 C 537.539062 391.996094 527.609375 350.039062 517.679688 308.089844 C 513.890625 292.074219 510.105469 276.054688 506.320312 260.046875 C 506.378906 259.785156 506.453125 259.382812 506.535156 258.765625 C 507.042969 254.894531 507.558594 251.023438 508.074219 247.148438 C 509.910156 233.335938 511.738281 219.523438 513.574219 205.707031 C 517.792969 173.957031 522.003906 142.210938 526.222656 110.460938 C 527.050781 104.199219 527.324219 99.03125 526.136719 92.640625 C 522.25 71.65625 501.117188 67.855469 483.492188 73.238281 C 481.738281 73.769531 480.339844 74.617188 479.246094 75.65625 C 479.140625 75.746094 479.019531 75.8125 478.910156 75.902344 C 440.679688 106.78125 402.445312 137.652344 364.21875 168.527344 C 357.507812 173.949219 354.851562 184.414062 351.386719 191.984375 C 341.265625 214.085938 331.140625 236.179688 321.011719 258.277344 C 293.578125 318.160156 266.152344 378.046875 238.710938 437.925781 C 257.230469 447.898438 278.394531 453.285156 298.839844 457.191406 C 315.839844 460.445312 333.046875 462.621094 350.328125 463.898438 " fill-opacity="1" fill-rule="nonzero"/><path fill="rgb(0%, 0%, 0%)" d="M 436.726562 484.042969 C 438.457031 497.664062 436.730469 513.253906 436.558594 523.964844 C 456.125 522.203125 475.519531 519.160156 494.457031 514.527344 C 511.582031 510.34375 529.183594 505.300781 544.390625 496.128906 C 549.375 493.121094 555.601562 488.996094 559.289062 483.933594 C 557.003906 474.273438 554.714844 464.613281 552.429688 454.953125 C 537.515625 463.488281 520.605469 468.984375 504.230469 473.066406 C 482.132812 478.570312 459.476562 482.089844 436.726562 484.042969 " fill-opacity="1" fill-rule="nonzero"/><path fill="rgb(0%, 0%, 0%)" d="M 227.269531 491.257812 C 240.382812 501.484375 257.457031 507.210938 273.273438 511.582031 C 295.339844 517.675781 318.003906 521.53125 340.808594 523.515625 C 341.480469 523.582031 342.160156 523.628906 342.832031 523.679688 C 342.628906 521.511719 342.53125 519.324219 342.53125 517.152344 C 342.53125 506.234375 341.726562 494.957031 342.414062 484.023438 C 325.921875 482.621094 309.507812 480.441406 293.316406 477.195312 C 271.847656 472.902344 249.648438 467.148438 230.058594 456.820312 C 226.238281 465.164062 222.417969 473.503906 218.59375 481.851562 C 220.863281 485.519531 223.820312 488.570312 227.269531 491.257812 " fill-opacity="1" fill-rule="nonzero"/><path fill="rgb(0%, 0%, 0%)" d="M 426.59375 545.535156 C 420.453125 550.257812 412.03125 552.253906 402.707031 552.253906 C 390.75 552.253906 378.535156 553 366.605469 552.039062 C 359.800781 551.496094 354.820312 548.929688 351.191406 545.164062 C 345.339844 544.722656 339.503906 544.199219 333.703125 543.566406 C 307.890625 540.753906 281.84375 536.652344 257.15625 528.359375 C 240.285156 522.6875 221.929688 515.535156 208.996094 502.804688 C 208.800781 503.226562 208.605469 503.652344 208.410156 504.078125 C 202.207031 517.617188 195.421875 527.730469 201.371094 543.097656 C 216.035156 580.964844 267.832031 595.613281 303.261719 603.132812 C 359.890625 615.148438 420.929688 614.058594 477.109375 600.277344 C 510.132812 592.167969 559.617188 574.921875 568.40625 536.964844 C 570.515625 527.804688 568.242188 517.386719 565.492188 507.480469 C 548.503906 521.167969 522.980469 528.707031 505.746094 533.101562 C 480.019531 539.648438 453.402344 543.679688 426.59375 545.535156 " fill-opacity="1" fill-rule="nonzero"/><path fill="rgb(0%, 0%, 0%)" d="M 148.320312 290.128906 C 149.214844 290.128906 150.113281 290.128906 151 290.128906 C 151 291.023438 151 291.910156 151 292.804688 C 151 305.613281 170.886719 305.613281 170.886719 292.804688 C 170.886719 291.910156 170.886719 291.023438 170.886719 290.128906 C 171.773438 290.128906 172.671875 290.128906 173.566406 290.128906 C 186.382812 290.128906 186.382812 270.257812 173.566406 270.257812 C 172.671875 270.257812 171.773438 270.257812 170.886719 270.257812 C 170.886719 269.363281 170.886719 268.476562 170.886719 267.582031 C 170.886719 254.773438 151 254.773438 151 267.582031 C 151 268.476562 151 269.363281 151 270.257812 C 150.113281 270.257812 149.214844 270.257812 148.320312 270.257812 C 135.503906 270.257812 135.503906 290.128906 148.320312 290.128906 " fill-opacity="1" fill-rule="nonzero"/><path fill="rgb(0%, 0%, 0%)" d="M 183.605469 354.402344 C 184.503906 354.402344 185.390625 354.402344 186.285156 354.402344 C 186.285156 355.296875 186.285156 356.191406 186.285156 357.085938 C 186.285156 369.894531 206.164062 369.894531 206.164062 357.085938 C 206.164062 356.191406 206.164062 355.296875 206.164062 354.402344 C 207.0625 354.402344 207.957031 354.402344 208.84375 354.402344 C 221.667969 354.402344 221.667969 334.539062 208.84375 334.539062 C 207.957031 334.539062 207.0625 334.539062 206.164062 334.539062 C 206.164062 333.644531 206.164062 332.757812 206.164062 331.859375 C 206.164062 319.054688 186.285156 319.054688 186.285156 331.859375 C 186.285156 332.757812 186.285156 333.644531 186.285156 334.539062 C 185.390625 334.539062 184.503906 334.539062 183.605469 334.539062 C 170.78125 334.539062 170.78125 354.402344 183.605469 354.402344 " fill-opacity="1" fill-rule="nonzero"/><path fill="rgb(0%, 0%, 0%)" d="M 148.320312 337.679688 C 144.566406 337.679688 141.527344 340.722656 141.527344 344.472656 C 141.527344 348.226562 144.566406 351.261719 148.320312 351.261719 C 152.074219 351.261719 155.121094 348.226562 155.121094 344.472656 C 155.121094 340.722656 152.074219 337.679688 148.320312 337.679688 " fill-opacity="1" fill-rule="nonzero"/></svg>